<svg xmlns="http://www.w3.org/2000/svg" viewBox="0 0 1280 720">
  <!-- Background -->
  <rect x="0" y="0" width="1280" height="720" fill="#FFFFFF" />
  <!-- Title bar background -->
  <rect x="0" y="0" width="1280" height="72" fill="#1E3A5F" />
  <!-- Title -->
  <text x="80" y="46" font-size="28" font-family="Arial,sans-serif" fill="#FFFFFF" font-weight="bold">TITLE_HERE</text>
  <!-- Source entry 1 -->
  <text x="80" y="120" font-size="14" font-family="Arial,sans-serif" fill="#475569">1. SOURCE_1_HERE</text>
  <line x1="80" y1="132" x2="1200" y2="132" stroke="#F1F5F9" stroke-width="1" />
  <!-- Source entry 2 -->
  <text x="80" y="160" font-size="14" font-family="Arial,sans-serif" fill="#475569">2. SOURCE_2_HERE</text>
  <line x1="80" y1="172" x2="1200" y2="172" stroke="#F1F5F9" stroke-width="1" />
  <!-- Source entry 3 -->
  <text x="80" y="200" font-size="14" font-family="Arial,sans-serif" fill="#475569">3. SOURCE_3_HERE</text>
  <line x1="80" y1="212" x2="1200" y2="212" stroke="#F1F5F9" stroke-width="1" />
  <!-- Source entry 4 -->
  <text x="80" y="240" font-size="14" font-family="Arial,sans-serif" fill="#475569">4. SOURCE_4_HERE</text>
  <line x1="80" y1="252" x2="1200" y2="252" stroke="#F1F5F9" stroke-width="1" />
  <!-- Source entry 5 -->
  <text x="80" y="280" font-size="14" font-family="Arial,sans-serif" fill="#475569">5. SOURCE_5_HERE</text>
  <line x1="80" y1="292" x2="1200" y2="292" stroke="#F1F5F9" stroke-width="1" />
  <!-- Source entry 6 -->
  <text x="80" y="320" font-size="14" font-family="Arial,sans-serif" fill="#475569">6. SOURCE_6_HERE</text>
  <line x1="80" y1="332" x2="1200" y2="332" stroke="#F1F5F9" stroke-width="1" />
  <!-- Source entry 7 -->
  <text x="80" y="360" font-size="14" font-family="Arial,sans-serif" fill="#475569">7. SOURCE_7_HERE</text>
  <line x1="80" y1="372" x2="1200" y2="372" stroke="#F1F5F9" stroke-width="1" />
  <!-- Source entry 8 -->
  <text x="80" y="400" font-size="14" font-family="Arial,sans-serif" fill="#475569">8. SOURCE_8_HERE</text>
  <line x1="80" y1="412" x2="1200" y2="412" stroke="#F1F5F9" stroke-width="1" />
  <!-- Source entry 9 -->
  <text x="80" y="440" font-size="14" font-family="Arial,sans-serif" fill="#475569">9. SOURCE_9_HERE</text>
  <line x1="80" y1="452" x2="1200" y2="452" stroke="#F1F5F9" stroke-width="1" />
  <!-- Source entry 10 -->
  <text x="80" y="480" font-size="14" font-family="Arial,sans-serif" fill="#475569">10. SOURCE_10_HERE</text>
  <!-- Bottom accent -->
  <rect x="0" y="714" width="1280" height="6" fill="#1E3A5F" />
</svg>
